# xmcd CD database file
# Copyright (C) 1993-1998 Ti Kan
#
# Track frame offsets:
#	150
#	17910
#	34152
#	50932
#	64007
#	83270
#	103102
#	119560
#	136290
#	153855
#	171062
#	185570
#	197765
#	217232
#	233655
#	253340
#	269225
#	289222
#	303082
#	317797
#
# Disc length: 4427 seconds
#
# Revision: 2
# Processed by: cddbd v1.4b41PL1 Copyright (c) Steve Scherf et al.
# Submitted via: CDValet v3.30 - Copyright (c) 1997 Greg Leichner
#
DISCID=2f114914
DTITLE=Kenny Rogers - The Very Best (20 Greatest Hits)
DYEAR=1900
DGENRE=
TTITLE0=Lady
TTITLE1=The Gambler
TTITLE2=Don't Fall in Love With a Dreamer
TTITLE3=Ruby Don't Take Your Love to Town
TTITLE4=She Believes in Me
TTITLE5=Coward of the Country
TTITLE6=Lucille
TTITLE7=You Decorated my Life
TTITLE8=We've Got Tonight
TTITLE9=Desperado
TTITLE10=Daytime Frinds
TTITLE11=Reuben James
TTITLE12=Long Arm of the Law
TTITLE13=Gree, Green Grass of HOme
TTITLE14=Something's Burning
TTITLE15=I Don't Need You
TTITLE16=Through the Years
TTITLE17=Every time two fools Collide
TTITLE18=Love the World Away
TTITLE19=All I Ever Need is You
EXTD=
EXTT0=
EXTT1=
EXTT2=
EXTT3=
EXTT4=
EXTT5=
EXTT6=
EXTT7=
EXTT8=
EXTT9=
EXTT10=
EXTT11=
EXTT12=
EXTT13=
EXTT14=
EXTT15=
EXTT16=
EXTT17=
EXTT18=
EXTT19=
PLAYORDER=
